<mxfile host="app.diagrams.net" modified="2022-03-30T08:23:06.691Z" agent="5.0 (Windows NT 10.0; Win64; x64) AppleWebKit/537.36 (KHTML, like Gecko) Chrome/99.0.4844.84 Safari/537.36" etag="VCLChD-0FxlO4OA6oGWq" version="17.2.5" type="github">
  <diagram id="ZJ3P73_0GnTi9dQlcdip" name="Page-1">
    <mxGraphModel dx="1697" dy="909" grid="1" gridSize="10" guides="1" tooltips="1" connect="1" arrows="1" fold="1" page="1" pageScale="1" pageWidth="827" pageHeight="1169" math="0" shadow="0">
      <root>
        <mxCell id="0" />
        <mxCell id="1" parent="0" />
        <mxCell id="qfR6J_gvIjfCB1Atp6Te-1" value="Actor" style="shape=umlActor;verticalLabelPosition=bottom;verticalAlign=top;html=1;" vertex="1" parent="1">
          <mxGeometry x="400" y="430" width="30" height="60" as="geometry" />
        </mxCell>
        <mxCell id="qfR6J_gvIjfCB1Atp6Te-2" value="创建预警规则" style="ellipse;whiteSpace=wrap;html=1;" vertex="1" parent="1">
          <mxGeometry x="500" y="360" width="140" height="70" as="geometry" />
        </mxCell>
      </root>
    </mxGraphModel>
  </diagram>
</mxfile>
